<svg xmlns="http://www.w3.org/2000/svg" viewBox="0 0 800 400" fill="none">
  <defs>
    <linearGradient id="bg4" x1="0" y1="0" x2="800" y2="400" gradientUnits="userSpaceOnUse">
      <stop offset="0%" stop-color="#1A1A2E"/>
      <stop offset="100%" stop-color="#12121F"/>
    </linearGradient>
    <radialGradient id="spotGlow" cx="0.5" cy="0.4" r="0.6">
      <stop offset="0%" stop-color="#FF6A00" stop-opacity="0.12"/>
      <stop offset="100%" stop-color="#FF6A00" stop-opacity="0"/>
    </radialGradient>
  </defs>
  <!-- Background -->
  <rect width="800" height="400" fill="url(#bg4)"/>
  <rect width="800" height="400" fill="url(#spotGlow)"/>
  <!-- Trophy glow -->
  <ellipse cx="400" cy="220" rx="130" ry="100" fill="#FF6A00" opacity="0.06"/>
  <!-- Trophy base -->
  <rect x="360" y="310" width="80" height="15" rx="4" fill="#FFB347" opacity="0.6"/>
  <rect x="370" y="300" width="60" height="15" rx="3" fill="#FFB347" opacity="0.5"/>
  <!-- Trophy stem -->
  <rect x="388" y="260" width="24" height="45" rx="4" fill="#FF6A00" opacity="0.7"/>
  <!-- Trophy cup -->
  <path d="M340 140 C340 100 360 70 400 65 C440 70 460 100 460 140 C460 180 450 220 440 240 L360 240 C350 220 340 180 340 140Z" fill="#FF6A00" opacity="0.8"/>
  <path d="M350 140 C350 108 365 82 400 78 C435 82 450 108 450 140 C450 175 442 210 434 230 L366 230 C358 210 350 175 350 140Z" fill="#1A1A2E" opacity="0.3"/>
  <!-- Trophy shine -->
  <path d="M370 110 C370 95 380 82 395 80 C385 82 378 95 378 115 C378 145 382 175 386 195 L372 195 C366 175 365 145 370 110Z" fill="white" opacity="0.15"/>
  <!-- Trophy handles -->
  <path d="M340 130 C320 130 310 150 315 170 C318 185 330 190 340 180" stroke="#FF6A00" stroke-width="6" fill="none" opacity="0.6" stroke-linecap="round"/>
  <path d="M460 130 C480 130 490 150 485 170 C482 185 470 190 460 180" stroke="#FF6A00" stroke-width="6" fill="none" opacity="0.6" stroke-linecap="round"/>
  <!-- Star on trophy -->
  <polygon points="400,105 408,122 427,125 413,138 416,157 400,148 384,157 387,138 373,125 392,122" fill="#FFB347" opacity="0.7"/>
  <!-- Stars/sparkles -->
  <g fill="#FFB347">
    <polygon points="250,80 253,88 261,88 255,93 257,101 250,96 243,101 245,93 239,88 247,88" opacity="0.4"/>
    <polygon points="550,60 552,66 558,66 553.5,70 555.5,76 550,72.5 544.5,76 546.5,70 542,66 548,66" opacity="0.5"/>
    <polygon points="180,200 182,206 188,206 183.5,210 185.5,216 180,212.5 174.5,216 176.5,210 172,206 178,206" opacity="0.3"/>
    <polygon points="620,180 622,186 628,186 623.5,190 625.5,196 620,192.5 614.5,196 616.5,190 612,186 618,186" opacity="0.35"/>
    <polygon points="300,300 302,306 308,306 303.5,310 305.5,316 300,312.5 294.5,316 296.5,310 292,306 298,306" opacity="0.25"/>
    <polygon points="520,280 522,286 528,286 523.5,290 525.5,296 520,292.5 514.5,296 516.5,290 512,286 518,286" opacity="0.3"/>
  </g>
  <!-- Confetti lines -->
  <line x1="280" y1="50" x2="290" y2="70" stroke="#FF6A00" stroke-width="2" opacity="0.3" stroke-linecap="round"/>
  <line x1="500" y1="40" x2="510" y2="65" stroke="#FFB347" stroke-width="2" opacity="0.4" stroke-linecap="round"/>
  <line x1="220" y1="150" x2="228" y2="170" stroke="#FF8C33" stroke-width="2" opacity="0.25" stroke-linecap="round"/>
  <line x1="580" y1="130" x2="588" y2="155" stroke="#FF6A00" stroke-width="2" opacity="0.3" stroke-linecap="round"/>
  <!-- Text -->
  <text x="400" y="360" text-anchor="middle" fill="white" font-family="system-ui" font-size="20" font-weight="800" opacity="0.85">TORNEOS GLOBALES</text>
  <text x="400" y="382" text-anchor="middle" fill="#FF6A00" font-family="system-ui" font-size="12" font-weight="600" letter-spacing="2" opacity="0.7">Compite · Gana · Evoluciona</text>
  <!-- Podium hint -->
  <rect x="60" y="200" width="60" height="120" rx="6" fill="white" fill-opacity="0.03" stroke="white" stroke-opacity="0.05"/>
  <text x="90" y="230" text-anchor="middle" fill="#FFB347" font-family="system-ui" font-size="22" font-weight="800">2°</text>
  <rect x="680" y="220" width="60" height="100" rx="6" fill="white" fill-opacity="0.03" stroke="white" stroke-opacity="0.05"/>
  <text x="710" y="252" text-anchor="middle" fill="#C4C4C4" font-family="system-ui" font-size="22" font-weight="800">3°</text>
</svg>
