<svg xmlns="http://www.w3.org/2000/svg" viewBox="0 0 64 64" fill="none">
  <defs>
    <linearGradient id="panel" x1="10" y1="8" x2="54" y2="56" gradientUnits="userSpaceOnUse">
      <stop offset="0%" stop-color="#FFBE5C" />
      <stop offset="45%" stop-color="#F97316" />
      <stop offset="100%" stop-color="#D9480F" />
    </linearGradient>
    <linearGradient id="ball" x1="41" y1="12" x2="52" y2="25" gradientUnits="userSpaceOnUse">
      <stop offset="0%" stop-color="#FFF4E6" />
      <stop offset="100%" stop-color="#FFE1A8" />
    </linearGradient>
  </defs>

  <rect width="64" height="64" rx="18" fill="#231C17" />
  <rect x="5" y="5" width="54" height="54" rx="16" fill="url(#panel)" />

  <path
    d="M32 13.5c7.29 0 13.2 5.91 13.2 13.2 0 5.82-3.2 10.15-7.12 13.94-2.37 2.29-3.58 4.12-3.58 6.85v2.16c0 1.1-.9 2-2 2h-1c-1.1 0-2-.9-2-2v-2.16c0-2.73-1.21-4.56-3.58-6.85-3.92-3.79-7.12-8.12-7.12-13.94 0-7.29 5.91-13.2 13.2-13.2Z"
    fill="#FFF7ED"
  />
  <circle cx="28.5" cy="21.5" r="1.7" fill="#F97316" />
  <circle cx="35.5" cy="21.5" r="1.7" fill="#F97316" />
  <circle cx="25.5" cy="27.5" r="1.7" fill="#F97316" />
  <circle cx="32" cy="27.5" r="1.7" fill="#F97316" />
  <circle cx="38.5" cy="27.5" r="1.7" fill="#F97316" />
  <circle cx="28.5" cy="33.5" r="1.7" fill="#F97316" />
  <circle cx="35.5" cy="33.5" r="1.7" fill="#F97316" />
  <path d="M27.1 44.1h9.8" stroke="#FFD7A3" stroke-width="2" stroke-linecap="round" />
  <rect x="29" y="45.5" width="6" height="10" rx="2.5" fill="#FFF7ED" />

  <circle cx="47" cy="18" r="6.5" fill="url(#ball)" />
  <path d="M42 18.5c1.4-2.2 3.7-3.9 6.6-4.5" stroke="#FFF4E6" stroke-width="1.8" stroke-linecap="round" opacity="0.72" />
  <path d="M44.4 13.8c1.9 1.8 2.2 4.9.6 7" stroke="#F97316" stroke-width="1.3" stroke-linecap="round" opacity="0.78" />
  <path d="M48.2 12.8c-1.1 2.2-1 4.6.5 6.8" stroke="#F97316" stroke-width="1.2" stroke-linecap="round" opacity="0.78" />
</svg>
