<svg xmlns="http://www.w3.org/2000/svg" viewBox="0 0 512 512">
  <defs>
    <linearGradient id="bg" x1="0" y1="0" x2="0" y2="1">
      <stop offset="0%" stop-color="#FF7A1A"/>
      <stop offset="100%" stop-color="#D94400"/>
    </linearGradient>
    <linearGradient id="ball" x1="0.3" y1="0" x2="0.8" y2="1">
      <stop offset="0%" stop-color="#FFED4A"/>
      <stop offset="100%" stop-color="#F5A623"/>
    </linearGradient>
  </defs>
  <rect x="16" y="16" width="480" height="480" rx="110" fill="url(#bg)"/>
  <g transform="translate(280,240) rotate(20)">
    <rect x="-14" y="78" width="28" height="72" rx="7" fill="white" opacity="0.88"/>
    <rect x="-26" y="68" width="52" height="16" rx="6" fill="white" opacity="0.82"/>
    <rect x="-58" y="-78" width="116" height="150" rx="40" fill="white" opacity="0.93"/>
    <circle cx="-28" cy="-52" r="8" fill="#E06018" opacity="0.5"/>
    <circle cx="0" cy="-52" r="8" fill="#E06018" opacity="0.5"/>
    <circle cx="28" cy="-52" r="8" fill="#E06018" opacity="0.5"/>
    <circle cx="-28" cy="-26" r="8" fill="#E06018" opacity="0.5"/>
    <circle cx="0" cy="-26" r="8" fill="#E06018" opacity="0.5"/>
    <circle cx="28" cy="-26" r="8" fill="#E06018" opacity="0.5"/>
    <circle cx="-28" cy="0" r="8" fill="#E06018" opacity="0.5"/>
    <circle cx="0" cy="0" r="8" fill="#E06018" opacity="0.5"/>
    <circle cx="28" cy="0" r="8" fill="#E06018" opacity="0.5"/>
    <circle cx="-28" cy="26" r="8" fill="#E06018" opacity="0.5"/>
    <circle cx="0" cy="26" r="8" fill="#E06018" opacity="0.5"/>
    <circle cx="28" cy="26" r="8" fill="#E06018" opacity="0.5"/>
    <circle cx="-28" cy="52" r="8" fill="#E06018" opacity="0.5"/>
    <circle cx="0" cy="52" r="8" fill="#E06018" opacity="0.5"/>
    <circle cx="28" cy="52" r="8" fill="#E06018" opacity="0.5"/>
  </g>
  <circle cx="180" cy="185" r="76" fill="url(#ball)"/>
  <path d="M122,148 Q155,190 122,232" fill="none" stroke="white" stroke-width="4" opacity="0.55" stroke-linecap="round"/>
  <path d="M238,148 Q205,190 238,232" fill="none" stroke="white" stroke-width="4" opacity="0.55" stroke-linecap="round"/>
  <circle cx="158" cy="164" r="16" fill="white" opacity="0.25"/>
</svg>
