<svg width="1200" height="630" viewBox="0 0 1200 630" xmlns="http://www.w3.org/2000/svg">
  <!-- Background -->
  <defs>
    <linearGradient id="bgGrad" x1="0%" y1="0%" x2="100%" y2="100%">
      <stop offset="0%" style="stop-color:#1A1F36;stop-opacity:1" />
      <stop offset="100%" style="stop-color:#0D2B28;stop-opacity:1" />
    </linearGradient>
    <linearGradient id="coralGrad" x1="0%" y1="0%" x2="100%" y2="0%">
      <stop offset="0%" style="stop-color:#E5553B;stop-opacity:1" />
      <stop offset="100%" style="stop-color:#F97316;stop-opacity:1" />
    </linearGradient>
  </defs>
  <rect width="1200" height="630" fill="url(#bgGrad)"/>

  <!-- Decorative court lines (subtle) -->
  <rect x="0" y="0" width="1200" height="630" fill="none" stroke="#0D9488" stroke-width="1" opacity="0.1"/>
  <line x1="600" y1="0" x2="600" y2="630" stroke="#0D9488" stroke-width="1" opacity="0.08"/>
  <line x1="0" y1="315" x2="1200" y2="315" stroke="#0D9488" stroke-width="1" opacity="0.08"/>

  <!-- Coral accent bar -->
  <rect x="80" y="80" width="6" height="120" rx="3" fill="url(#coralGrad)"/>

  <!-- Main title -->
  <text x="112" y="142" font-family="'Outfit', 'DM Sans', system-ui, sans-serif" font-size="80" font-weight="800" fill="white" letter-spacing="-2">Score</text>
  <text x="112" y="222" font-family="'Outfit', 'DM Sans', system-ui, sans-serif" font-size="80" font-weight="800" fill="#E5553B" letter-spacing="-2">Padel</text>

  <!-- Tagline -->
  <text x="112" y="300" font-family="'DM Sans', system-ui, sans-serif" font-size="28" fill="#9CA3AF" font-weight="400">Plataforma global de valoración y competiciones</text>

  <!-- Stats row -->
  <rect x="112" y="360" width="200" height="80" rx="12" fill="white" fill-opacity="0.06"/>
  <text x="212" y="395" text-anchor="middle" font-family="'Outfit', system-ui" font-size="32" font-weight="800" fill="#E5553B">12</text>
  <text x="212" y="420" text-anchor="middle" font-family="'DM Sans', system-ui" font-size="14" fill="#9CA3AF">Niveles</text>

  <rect x="332" y="360" width="200" height="80" rx="12" fill="white" fill-opacity="0.06"/>
  <text x="432" y="395" text-anchor="middle" font-family="'Outfit', system-ui" font-size="32" font-weight="800" fill="#0D9488">3</text>
  <text x="432" y="420" text-anchor="middle" font-family="'DM Sans', system-ui" font-size="14" fill="#9CA3AF">Divisiones</text>

  <rect x="552" y="360" width="200" height="80" rx="12" fill="white" fill-opacity="0.06"/>
  <text x="652" y="395" text-anchor="middle" font-family="'Outfit', system-ui" font-size="32" font-weight="800" fill="#F59E0B">1–7</text>
  <text x="652" y="420" text-anchor="middle" font-family="'DM Sans', system-ui" font-size="14" fill="#9CA3AF">Valoración</text>

  <!-- Padel court illustration (right side) -->
  <rect x="830" y="80" width="290" height="460" rx="16" fill="#0D9488" fill-opacity="0.15"/>
  <rect x="850" y="100" width="250" height="420" rx="8" fill="#0D9488" fill-opacity="0.4"/>
  <rect x="850" y="100" width="250" height="420" rx="8" fill="none" stroke="white" stroke-width="2" stroke-opacity="0.6"/>
  <line x1="975" y1="100" x2="975" y2="520" stroke="white" stroke-width="2" stroke-opacity="0.6"/>
  <line x1="850" y1="240" x2="1100" y2="240" stroke="white" stroke-width="1.5" stroke-opacity="0.5"/>
  <line x1="850" y1="380" x2="1100" y2="380" stroke="white" stroke-width="1.5" stroke-opacity="0.5"/>
  <!-- Net -->
  <rect x="971" y="95" width="8" height="430" rx="2" fill="#1A1F36" fill-opacity="0.5"/>
  <line x1="975" y1="95" x2="975" y2="525" stroke="white" stroke-width="3" stroke-dasharray="6,4" stroke-opacity="0.8"/>
  <!-- Ball -->
  <circle cx="970" cy="290" r="10" fill="#E5553B"/>
  <circle cx="970" cy="290" r="10" fill="none" stroke="white" stroke-width="1.5"/>

  <!-- URL -->
  <text x="112" y="570" font-family="'DM Sans', system-ui" font-size="20" fill="#6B7280">scorepadel.padelzone.workers.dev</text>
</svg>
